HIERARCHY
ROOT Hips
{
	OFFSET 0.00 0.00 0.00
	CHANNELS 6 Xposition Yposition Zposition Xrotation Yrotation Zrotation
	JOINT Spine
	{
		OFFSET 0.00000 2.10617 3.15926
		CHANNELS 3 Xrotation Yrotation Zrotation
		JOINT Spine1
		{
			OFFSET 0.00000 0.73147 4.14835
			CHANNELS 3 Xrotation Yrotation Zrotation
			JOINT Spine2
			{
				OFFSET 0.00000 0.36713 4.19631
				CHANNELS 3 Xrotation Yrotation Zrotation
				JOINT Spine3
				{
					OFFSET 0.00000 0.00000 4.21234
					CHANNELS 3 Xrotation Yrotation Zrotation
					JOINT Neck
					{
						OFFSET 0.00000 -1.57962 11.05740
						CHANNELS 3 Xrotation Yrotation Zrotation
						JOINT Head
						{
							OFFSET 0.00000 -1.00576 5.70398
							CHANNELS 3 Xrotation Yrotation Zrotation
							End Site
							{
								OFFSET 0.00000 0.00001 6.81873
							}
						}
					}
					JOINT RightShoulder
					{
						OFFSET -1.28113 -2.13521 6.91810
						CHANNELS 3 Xrotation Yrotation Zrotation
						JOINT RightArm
						{
							OFFSET -6.36294 0.00000 0.00000
							CHANNELS 3 Xrotation Yrotation Zrotation
							JOINT RightForeArm
							{
								OFFSET -10.12221 0.00000 0.00000
								CHANNELS 3 Xrotation Yrotation Zrotation
								JOINT RightHand
								{
									OFFSET -10.76713 0.00000 0.00000
									CHANNELS 3 Xrotation Yrotation Zrotation
									JOINT RightHandEnd
									{
										OFFSET -2.78915 0.00000 0.00000
										CHANNELS 3 Xrotation Yrotation Zrotation
										End Site
										{
											OFFSET -2.78915 0.00000 0.00000
										}
									}
									JOINT RightHandThumb1
									{
										OFFSET -1.11566 -1.85944 -0.74377
										CHANNELS 3 Yrotation Xrotation Zrotation
										End Site
										{
											OFFSET -2.69412 -0.72189 0.00000
										}
									}
								}
							}
						}
					}
					JOINT LeftShoulder
					{
						OFFSET 1.28113 -2.13521 6.91810
						CHANNELS 3 Xrotation Yrotation Zrotation
						JOINT LeftArm
						{
							OFFSET 6.36294 0.00000 0.00000
							CHANNELS 3 Xrotation Yrotation Zrotation
							JOINT LeftForeArm
							{
								OFFSET 10.12221 0.00000 0.00000
								CHANNELS 3 Xrotation Yrotation Zrotation
								JOINT LeftHand
								{
									OFFSET 10.76713 0.00000 0.00000
									CHANNELS 3 Xrotation Yrotation Zrotation
									JOINT LeftHandEnd
									{
										OFFSET 2.78915 0.00000 0.00000
										CHANNELS 3 Xrotation Yrotation Zrotation
										End Site
										{
											OFFSET 2.78915 0.00000 0.00000
										}
									}
									JOINT LeftHandThumb1
									{
										OFFSET 1.11566 -1.85944 -0.74377
										CHANNELS 3 Yrotation Xrotation Zrotation
										End Site
										{
											OFFSET 2.69412 -0.72189 0.00000
										}
									}
								}
							}
						}
					}
				}
			}
		}
	}
	JOINT RightUpLeg
	{
		OFFSET -3.80068 0.00000 -1.11031
		CHANNELS 3 Xrotation Yrotation Zrotation
		JOINT RightLeg
		{
			OFFSET 0.00001 0.00000 -17.00167
			CHANNELS 3 Xrotation Yrotation Zrotation
			JOINT RightFoot
			{
				OFFSET 0.00001 0.00000 -17.96841
				CHANNELS 3 Xrotation Yrotation Zrotation
				JOINT RightToeBase
				{
					OFFSET 0.00000 -5.07501 -1.84715
					CHANNELS 3 Xrotation Yrotation Zrotation
					End Site
					{
						OFFSET 0.00000 -3.07471 -0.00000
					}
				}
			}
		}
	}
	JOINT LeftUpLeg
	{
		OFFSET 3.80068 0.00000 -1.11031
		CHANNELS 3 Xrotation Yrotation Zrotation
		JOINT LeftLeg
		{
			OFFSET 0.00001 0.00000 -17.00167
			CHANNELS 3 Xrotation Yrotation Zrotation
			JOINT LeftFoot
			{
				OFFSET 0.00001 0.00000 -17.96841
				CHANNELS 3 Xrotation Yrotation Zrotation
				JOINT LeftToeBase
				{
					OFFSET 0.00000 -5.07501 -1.84715
					CHANNELS 3 Xrotation Yrotation Zrotation
					End Site
					{
						OFFSET 0.00000 -3.07471 -0.00000
					}
				}
			}
		}
	}
}
MOTION
Frames: 6
Frame Time: 0.008342
 10.2925 56.2650 37.9231 2.6346 0.8353 1.5580 -0.2374 1.2446 0.3049 0.0437 -0.0521 0.0323 -0.3571 -2.1296 0.8545 -0.1823 -1.3550 1.5374 1.1477 -2.4615 3.4225 -0.5821 2.4807 5.9225 -7.5917 8.0557 0.6767 -19.9773 -5.3190 -24.6840 0.0000 0.0000 29.9697 5.0991 9.3414 1.3464 -0.0000 0.0000 -0.0000 -0.0000 -0.0000 -0.0000 -11.3266 -10.3462 -5.8246 -5.7493 11.0517 23.5780 -0.0000 -0.0000 -22.5897 -15.5123 -12.9070 7.2599 -0.0000 0.0000 -0.0000 -0.0000 0.0000 0.0000 -1.3174 0.8481 -27.2435 5.9037 0.0000 0.0000 -6.3813 -2.8621 1.4271 1.8056 0.0000 0.0000 -1.1378 -2.0656 18.7011 4.1062 0.0000 0.0000 -10.0952 23.5313 9.3564 10.6575 0.0000 0.0000
 10.2912 56.2649 37.9230 2.6313 0.8294 1.5536 -0.2312 1.2450 0.3046 0.0451 -0.0485 0.0325 -0.3552 -2.1310 0.8521 -0.1818 -1.3577 1.5418 1.1569 -2.4606 3.4206 -0.5912 2.4801 5.9194 -7.5913 8.0621 0.6717 -19.9880 -5.3271 -24.6826 0.0000 0.0000 29.9699 5.1064 9.3417 1.3474 0.0000 -0.0000 0.0000 -0.0000 0.0000 -0.0000 -11.3241 -10.3486 -5.8277 -5.7584 11.0510 23.5724 -0.0000 -0.0000 -22.5886 -15.5270 -12.9056 7.2571 0.0000 -0.0000 0.0000 -0.0000 -0.0000 0.0000 -1.3345 0.8598 -27.2058 5.9448 0.0000 0.0000 -6.4015 -2.8539 1.3963 1.8038 0.0000 0.0000 -1.1245 -2.0589 18.7154 4.0876 0.0000 0.0000 -10.0818 23.5341 9.3463 10.6580 0.0000 0.0000
 10.2893 56.2648 37.9228 2.6288 0.8224 1.5491 -0.2251 1.2474 0.3021 0.0478 -0.0455 0.0324 -0.3540 -2.1351 0.8524 -0.1808 -1.3594 1.5441 1.1707 -2.4599 3.4190 -0.6033 2.4784 5.9163 -7.5917 8.0693 0.6683 -19.9975 -5.3371 -24.6831 0.0000 0.0000 29.9721 5.1129 9.3445 1.3468 -0.0000 0.0000 0.0000 -0.0000 -0.0000 0.0000 -11.3186 -10.3537 -5.8299 -5.7729 11.0520 23.5654 -0.0000 -0.0000 -22.5883 -15.5450 -12.9049 7.2530 0.0000 0.0000 -0.0000 -0.0000 0.0000 -0.0000 -1.3566 0.8731 -27.1593 5.9945 0.0000 0.0000 -6.4267 -2.8425 1.3573 1.8016 0.0000 0.0000 -1.1085 -2.0516 18.7402 4.0627 0.0000 0.0000 -10.0611 23.5407 9.3255 10.6560 0.0000 0.0000
 10.2869 56.2645 37.9226 2.6268 0.8147 1.5439 -0.2188 1.2500 0.2991 0.0506 -0.0417 0.0321 -0.3523 -2.1402 0.8519 -0.1798 -1.3618 1.5469 1.1892 -2.4587 3.4179 -0.6187 2.4751 5.9132 -7.5918 8.0774 0.6648 -20.0055 -5.3495 -24.6832 0.0000 0.0000 29.9756 5.1211 9.3509 1.3432 0.0000 -0.0000 0.0000 -0.0000 0.0000 0.0000 -11.3115 -10.3592 -5.8316 -5.7893 11.0528 23.5561 -0.0000 -0.0000 -22.5883 -15.5675 -12.9040 7.2457 0.0000 0.0000 -0.0000 0.0000 -0.0000 0.0000 -1.3832 0.8875 -27.1028 6.0523 0.0000 0.0000 -6.4567 -2.8281 1.3097 1.7985 0.0000 0.0000 -1.0897 -2.0437 18.7737 4.0315 0.0000 0.0000 -10.0343 23.5510 9.2965 10.6511 0.0000 0.0000
 10.2838 56.2641 37.9224 2.6255 0.8061 1.5391 -0.2125 1.2531 0.2950 0.0540 -0.0372 0.0320 -0.3504 -2.1472 0.8502 -0.1786 -1.3641 1.5501 1.2125 -2.4574 3.4168 -0.6370 2.4695 5.9101 -7.5910 8.0867 0.6616 -20.0117 -5.3649 -24.6844 0.0000 0.0000 29.9809 5.1296 9.3600 1.3382 0.0000 -0.0000 -0.0000 0.0000 -0.0000 0.0000 -11.3020 -10.3651 -5.8329 -5.8090 11.0532 23.5442 -0.0000 -0.0000 -22.5882 -15.5938 -12.9026 7.2336 0.0000 -0.0000 -0.0000 -0.0000 -0.0000 -0.0000 -1.4128 0.9028 -27.0413 6.1156 0.0000 0.0000 -6.4904 -2.8117 1.2572 1.7949 0.0000 0.0000 -1.0683 -2.0353 18.8162 3.9948 0.0000 0.0000 -10.0014 23.5650 9.2581 10.6436 0.0000 0.0000
 10.2802 56.2634 37.9221 2.6245 0.7974 1.5353 -0.2062 1.2563 0.2908 0.0575 -0.0320 0.0316 -0.3481 -2.1549 0.8468 -0.1775 -1.3667 1.5530 1.2404 -2.4561 3.4161 -0.6577 2.4616 5.9079 -7.5901 8.0960 0.6583 -20.0138 -5.3829 -24.6851 0.0000 0.0000 29.9880 5.1373 9.3724 1.3306 0.0000 -0.0000 -0.0000 -0.0000 -0.0000 0.0000 -11.2913 -10.3715 -5.8331 -5.8292 11.0529 23.5294 -0.0000 -0.0000 -22.5885 -15.6205 -12.9007 7.2200 -0.0000 0.0000 0.0000 0.0000 -0.0000 0.0000 -1.4437 0.9176 -26.9763 6.1816 0.0000 0.0000 -6.5265 -2.7937 1.2004 1.7903 0.0000 0.0000 -1.0452 -2.0273 18.8635 3.9542 0.0000 0.0000 -9.9647 23.5818 9.2136 10.6338 0.0000 0.0000
